<svg xmlns:xlink="http://www.w3.org/1999/xlink" xmlns="http://www.w3.org/2000/svg" fill="currentColor" viewBox="0 0 64 64" class="svg-icon " style="color: inherit" width="64"  height="64" > <title stroke="#FFFFFF" fill="#FFFFFF" stroke-width="0px"></title> <path fill-rule="evenodd" d="M18.285 6.994c6.454 0 12.1 3.497 15.327 8.605-8.337 4.304-14.252 13.177-14.252 23.125 0 1.614.27 3.227.539 4.572-.539.269-1.075.269-1.614.269C8.067 43.565 0 35.498 0 25.279S8.337 6.994 18.285 6.994M36.3 23.128c2.69-1.614 5.917-2.689 9.412-2.689l.002-.004C55.933 20.435 64 28.772 64 38.721c0 10.218-8.337 18.285-18.286 18.285-9.41 0-16.94-7.26-18.015-16.402-.268-.536-.268-1.343-.268-1.881 0-1.075 0-2.152.268-3.227.268-.268.268-.538.268-.807.269-1.077.539-2.152.807-2.958 0-.134.067-.269.134-.404.067-.134.134-.269.134-.403.168-.505.442-.905.69-1.265.147-.215.285-.415.385-.616.134-.135.269-.336.404-.538.134-.202.269-.403.403-.537.374-.187.619-.506.823-.773.09-.115.17-.221.252-.302.17-.17.34-.367.518-.574.386-.446.812-.94 1.363-1.308.135-.136.27-.203.405-.27.134-.068.269-.135.402-.268.27-.27.538-.471.807-.673s.537-.403.806-.672" clip-rule="evenodd" stroke="#FFFFFF" fill="#FFFFFF" stroke-width="0px"></path></svg>