<svg xmlns:xlink="http://www.w3.org/1999/xlink" xmlns="http://www.w3.org/2000/svg" fill="currentColor" viewBox="0 0 64 64" class="svg-icon " style="color: rgb(255, 185, 73);" width="64"  height="64" > <title stroke="#FFB949" fill="#FFB949" stroke-width="0px"></title> <path d="M52.615 44.137h4.272c1.138 0 1.992 1.424 1.138 2.278L43.502 62.932c-1.139 1.424-3.134 1.424-4.272 0L24.707 46.415c-.855-.854-.285-2.279 1.138-2.279h4.272c.854 0 1.424-.57 1.424-1.424V27.334c0-1.709 1.139-2.847 2.847-2.847h13.953c1.71 0 2.847 1.138 2.847 2.847v15.378c0 .854.57 1.424 1.425 1.424zm-35.881-2.848c1.138-2.562 3.417-4.555 6.264-5.41v-8.827c0-6.264 5.126-11.39 11.39-11.39h2.563V2.847C36.951 1.138 35.813 0 34.104 0H8.474C6.766 0 5.627 1.138 5.627 2.847v42.432c0 1.709 1.139 2.847 2.847 2.847h7.69c-.57-2.279-.57-4.555.57-6.834z" stroke="#FFB949" fill="#FFB949" stroke-width="0px"></path></svg>