<svg xmlns:xlink="http://www.w3.org/1999/xlink" xmlns="http://www.w3.org/2000/svg" fill="currentColor" viewBox="0 0 64 64" class="svg-icon " style="color: var(--purple-500)" width="64"  height="64" > <title stroke="#9000FF" fill="#9000FF" stroke-width="0px"></title> <path d="M59.102 14.4c0-2.666-2.134-4.534-4.534-4.534-2.666 0-4.534 2.134-4.534 4.534V32h-5.866V4.534C44.168 1.868 42.034 0 39.634 0S35.1 2.134 35.1 4.534V32h-5.6V12c0-2.666-2.134-4.534-4.534-4.534-2.666 0-4.534 2.134-4.534 4.534v30.666l-7.2-7.2c-1.866-1.866-5.066-1.866-6.934 0s-1.866 5.066 0 6.934l14.4 17.6c1.6 2.666 4.534 4 7.734 4h16.266c7.734 0 14.134-6.4 14.134-14.134l.266-35.466z" stroke="#9000FF" fill="#9000FF" stroke-width="0px"></path></svg>